<svg width="28" height="28" viewBox="0 0 28 28" fill="none" xmlns="http://www.w3.org/2000/svg">
<rect width="3.00001" height="3" fill="black"/>
<rect y="3" width="3.00001" height="3" fill="black"/>
<rect y="6" width="3.00001" height="3" fill="black"/>
<rect y="9" width="3.00001" height="3" fill="black"/>
<rect y="12" width="3.00001" height="3" fill="black"/>
<rect y="15" width="3.00001" height="3" fill="black"/>
<rect y="18" width="3.00001" height="3" fill="black"/>
<rect y="21" width="3.00001" height="3" fill="black"/>
<rect y="24" width="3.00001" height="3" fill="black"/>
<rect y="27" width="3.00001" height="3" fill="black"/>
<rect y="30" width="3.00001" height="3" fill="black"/>
<rect y="33" width="3.00001" height="3" fill="black"/>
<rect y="36" width="3.00001" height="3" fill="black"/>
<rect x="33" width="3" height="3.00001" transform="rotate(90 33 0)" fill="black"/>
<rect x="30.0032" width="3" height="3.00001" transform="rotate(90 30.0032 0)" fill="black"/>
<rect x="26.9998" width="3" height="3.00001" transform="rotate(90 26.9998 0)" fill="black"/>
<rect x="23.9998" width="3" height="3.00001" transform="rotate(90 23.9998 0)" fill="black"/>
<rect x="20.999" width="3" height="3.00001" transform="rotate(90 20.999 0)" fill="black"/>
<rect x="17.9998" width="3" height="3.00001" transform="rotate(90 17.9998 0)" fill="black"/>
<rect x="14.999" width="3" height="3.00001" transform="rotate(90 14.999 0)" fill="black"/>
<rect x="12" width="3" height="3.00001" transform="rotate(90 12 0)" fill="black"/>
<rect x="8.99609" width="3" height="3.00001" transform="rotate(90 8.99609 0)" fill="black"/>
<rect x="6" width="3" height="3.00001" transform="rotate(90 6 0)" fill="black"/>
<rect x="36.0007" y="3" width="3" height="3.00001" transform="rotate(90 36.0007 3)" fill="black"/>
<rect x="8.99609" y="6" width="3" height="3.00001" transform="rotate(90 8.99609 6)" fill="black"/>
<rect x="8.99609" y="3" width="3" height="3.00001" transform="rotate(90 8.99609 3)" fill="black"/>
<rect x="8.99609" y="9" width="3" height="3.00001" transform="rotate(90 8.99609 9)" fill="black"/>
<rect x="30.0032" y="6" width="3" height="3.00001" transform="rotate(90 30.0032 6)" fill="black"/>
<rect x="30.0032" y="3" width="3" height="3.00001" transform="rotate(90 30.0032 3)" fill="black"/>
<rect x="30.0032" y="9" width="3" height="3.00001" transform="rotate(90 30.0032 9)" fill="black"/>
<rect x="23.9998" y="6" width="3" height="3.00001" transform="rotate(90 23.9998 6)" fill="black"/>
<rect x="23.9998" y="3" width="3" height="3.00001" transform="rotate(90 23.9998 3)" fill="black"/>
<rect x="23.9998" y="9" width="3" height="3.00001" transform="rotate(90 23.9998 9)" fill="black"/>
<rect x="30.0032" y="12" width="3" height="3.00001" transform="rotate(90 30.0032 12)" fill="black"/>
<rect x="26.9998" y="12" width="3" height="3.00001" transform="rotate(90 26.9998 12)" fill="black"/>
<rect x="23.9998" y="12" width="3" height="3.00001" transform="rotate(90 23.9998 12)" fill="black"/>
<rect x="20.999" y="12" width="3" height="3.00001" transform="rotate(90 20.999 12)" fill="black"/>
<rect x="17.9998" y="12" width="3" height="3.00001" transform="rotate(90 17.9998 12)" fill="black"/>
<rect x="14.999" y="12" width="3" height="3.00001" transform="rotate(90 14.999 12)" fill="black"/>
<rect x="12" y="12" width="3" height="3.00001" transform="rotate(90 12 12)" fill="black"/>
<rect x="8.99609" y="12" width="3" height="3.00001" transform="rotate(90 8.99609 12)" fill="black"/>
<rect x="33" y="21" width="3" height="3.00001" transform="rotate(90 33 21)" fill="black"/>
<rect x="30.0032" y="21" width="3" height="3.00001" transform="rotate(90 30.0032 21)" fill="black"/>
<rect x="26.9998" y="21" width="3" height="3.00001" transform="rotate(90 26.9998 21)" fill="black"/>
<rect x="23.9998" y="21" width="3" height="3.00001" transform="rotate(90 23.9998 21)" fill="black"/>
<rect x="20.999" y="21" width="3" height="3.00001" transform="rotate(90 20.999 21)" fill="black"/>
<rect x="17.9998" y="21" width="3" height="3.00001" transform="rotate(90 17.9998 21)" fill="black"/>
<rect x="14.999" y="21" width="3" height="3.00001" transform="rotate(90 14.999 21)" fill="black"/>
<rect x="12" y="21" width="3" height="3.00001" transform="rotate(90 12 21)" fill="black"/>
<rect x="8.99609" y="21" width="3" height="3.00001" transform="rotate(90 8.99609 21)" fill="black"/>
<rect x="33" y="24" width="3" height="3.00001" transform="rotate(90 33 24)" fill="black"/>
<rect x="8.99609" y="24" width="3" height="3.00001" transform="rotate(90 8.99609 24)" fill="black"/>
<rect x="33" y="27" width="3" height="3.00001" transform="rotate(90 33 27)" fill="black"/>
<rect x="8.99609" y="27" width="3" height="3.00001" transform="rotate(90 8.99609 27)" fill="black"/>
<rect x="33" y="30" width="3" height="3.00001" transform="rotate(90 33 30)" fill="black"/>
<rect x="8.99609" y="30" width="3" height="3.00001" transform="rotate(90 8.99609 30)" fill="black"/>
<rect x="8.99609" y="33" width="3" height="3.00001" transform="rotate(90 8.99609 33)" fill="black"/>
<rect x="33" y="33" width="3" height="3.00001" transform="rotate(90 33 33)" fill="black"/>
<rect x="36.0007" y="36" width="3" height="3.00001" transform="rotate(90 36.0007 36)" fill="black"/>
<rect x="33" y="36" width="3" height="3.00001" transform="rotate(90 33 36)" fill="black"/>
<rect x="30.0032" y="36" width="3" height="3.00001" transform="rotate(90 30.0032 36)" fill="black"/>
<rect x="26.9998" y="36" width="3" height="3.00001" transform="rotate(90 26.9998 36)" fill="black"/>
<rect x="23.9998" y="36" width="3" height="3.00001" transform="rotate(90 23.9998 36)" fill="black"/>
<rect x="20.999" y="36" width="3" height="3.00001" transform="rotate(90 20.999 36)" fill="black"/>
<rect x="17.9998" y="36" width="3" height="3.00001" transform="rotate(90 17.9998 36)" fill="black"/>
<rect x="14.999" y="36" width="3" height="3.00001" transform="rotate(90 14.999 36)" fill="black"/>
<rect x="12" y="36" width="3" height="3.00001" transform="rotate(90 12 36)" fill="black"/>
<rect x="8.99609" y="36" width="3" height="3.00001" transform="rotate(90 8.99609 36)" fill="black"/>
<rect x="6" y="36" width="3" height="3.00001" transform="rotate(90 6 36)" fill="black"/>
<rect x="39" y="39" width="3.00001" height="3" transform="rotate(-180 39 39)" fill="black"/>
<rect x="39" y="36" width="3.00001" height="3" transform="rotate(-180 39 36)" fill="black"/>
<rect x="39" y="33" width="3.00001" height="3" transform="rotate(-180 39 33)" fill="black"/>
<rect x="39" y="30" width="3.00001" height="3" transform="rotate(-180 39 30)" fill="black"/>
<rect x="39" y="27" width="3.00001" height="3" transform="rotate(-180 39 27)" fill="black"/>
<rect x="39" y="24" width="3.00001" height="3" transform="rotate(-180 39 24)" fill="black"/>
<rect x="39" y="21" width="3.00001" height="3" transform="rotate(-180 39 21)" fill="black"/>
<rect x="39" y="18" width="3.00001" height="3" transform="rotate(-180 39 18)" fill="black"/>
<rect x="39" y="15" width="3.00001" height="3" transform="rotate(-180 39 15)" fill="black"/>
<rect x="39" y="12" width="3.00001" height="3" transform="rotate(-180 39 12)" fill="black"/>
<rect x="39" y="9" width="3.00001" height="3" transform="rotate(-180 39 9)" fill="black"/>
</svg>
